<?xml version="1.0" standalone="no"?>
<!DOCTYPE svg PUBLIC "-//W3C//DTD SVG 20010904//EN"
 "http://www.w3.org/TR/2001/REC-SVG-20010904/DTD/svg10.dtd">
<svg version="1.0" xmlns="http://www.w3.org/2000/svg"
 width="407.000000pt" height="550.000000pt" viewBox="0 0 407.000000 550.000000"
 preserveAspectRatio="xMidYMid meet">

<g transform="translate(0.000000,550.000000) scale(0.100000,-0.100000)"
fill="#000000" stroke="none">
<path d="M1940 5469 c-49 -3 -117 -17 -160 -32 -62 -21 -86 -24 -130 -18 -89
11 -172 -4 -263 -48 -88 -42 -133 -78 -190 -153 -51 -68 -76 -144 -88 -267 -5
-58 -15 -121 -21 -140 -6 -18 -46 -71 -93 -120 -52 -55 -85 -99 -89 -118 -8
-37 5 -91 39 -165 28 -61 32 -114 10 -146 -9 -12 -37 -36 -63 -53 -116 -78
-162 -151 -161 -254 0 -145 86 -241 238 -266 58 -9 61 -8 210 51 83 33 155 60
160 60 12 0 16 -15 77 -285 25 -115 61 -275 79 -355 19 -80 32 -146 31 -148
-3 -3 -395 136 -412 146 -8 5 -3 33 17 92 88 269 159 495 159 507 0 7 -4 13
-10 13 -5 0 -46 -114 -90 -252 -45 -139 -90 -279 -100 -311 l-19 -57 27 -14
c15 -7 50 -21 78 -30 51 -17 52 -17 69 -79 9 -34 73 -259 141 -500 68 -240
124 -441 124 -446 0 -5 -13 -14 -29 -20 -30 -13 -49 -40 -54 -81 -3 -17 -12
-26 -35 -32 -37 -10 -72 -51 -72 -85 0 -16 13 -37 34 -57 29 -27 32 -34 24
-56 -5 -14 -7 -33 -4 -44 6 -22 77 -25 -619 29 -472 37 -526 39 -532 18 -2 -6
51 -48 119 -93 68 -45 114 -79 103 -74 -71 28 -214 73 -232 73 -24 1 -32 -17
-10 -23 99 -28 222 -72 253 -91 l39 -24 -61 5 c-115 12 -219 -39 -265 -127
-21 -41 -25 -69 -10 -69 5 0 12 9 16 19 25 79 127 151 215 151 41 0 126 -17
172 -35 23 -9 23 12 0 38 -14 17 54 -22 122 -69 22 -15 26 -12 -68 -45 -66
-23 -121 -121 -145 -255 -30 -171 -21 -540 15 -647 14 -41 45 -78 74 -89 4 -2
2 -33 -5 -71 -7 -38 -9 -70 -4 -73 5 -3 11 1 14 8 16 42 145 656 141 671 -9
35 26 36 114 1 81 -32 145 -41 181 -26 9 4 58 45 108 92 118 111 107 102 206
161 l86 51 86 -9 86 -8 -2 -140 c-1 -77 -8 -336 -15 -575 -7 -239 -11 -438 -9
-442 2 -5 162 -8 355 -8 l351 0 -7 253 c-3 138 -9 386 -12 550 l-7 297 34 0
c64 -1 302 -29 309 -37 4 -4 19 -64 35 -133 15 -69 31 -132 36 -141 6 -12 39
-21 116 -33 201 -31 611 -38 620 -11 2 6 -73 10 -210 11 -189 0 -391 17 -483
40 -17 4 -25 24 -48 127 -16 66 -30 127 -33 134 -4 10 11 12 71 6 71 -6 76 -5
76 14 0 14 -29 38 -100 83 -56 35 -105 69 -109 74 -5 6 -23 67 -40 136 -17 69
-41 146 -52 171 l-21 47 -102 24 -101 23 -3 43 c-2 24 1 49 6 55 5 7 47 131
92 277 46 146 87 273 92 283 8 15 28 17 208 17 l200 0 0 315 0 315 -85 0 c-84
0 -86 1 -96 27 -8 21 -6 42 8 91 18 61 20 64 81 98 34 19 62 40 62 47 0 11
-18 54 -168 412 -36 85 -65 141 -75 143 -11 2 19 -78 99 -267 63 -149 114
-274 114 -279 0 -5 -111 -70 -246 -146 -159 -90 -242 -142 -236 -148 7 -7 69
23 178 85 93 53 170 94 172 92 7 -6 -30 -115 -39 -115 -5 0 -9 -9 -9 -20 0
-18 -7 -20 -85 -20 l-84 0 -3 -292 -3 -293 -89 -280 c-49 -154 -92 -284 -96
-288 -12 -13 -19 588 -9 748 13 207 28 312 150 1025 17 96 33 192 36 213 3 21
9 40 13 42 4 3 87 -22 184 -55 96 -33 178 -60 181 -60 4 0 18 25 32 56 34 74
27 104 -39 171 -46 46 -50 55 -45 86 3 18 24 60 46 92 57 81 56 113 -9 237
-56 107 -60 138 -35 243 20 83 19 153 -4 190 -10 17 -45 58 -78 92 -63 65 -80
97 -113 208 -41 139 -111 223 -250 298 -111 60 -197 77 -340 66z m410 -829 c0
-5 -4 -10 -8 -10 -12 0 -97 -116 -153 -209 l-45 -75 14 -61 c7 -33 12 -77 10
-97 -2 -21 -3 -38 -2 -38 4 0 81 136 87 153 11 30 30 20 24 -13 -8 -36 -40
-88 -129 -207 -81 -109 -113 -137 -195 -174 -221 -101 -452 -30 -524 160 -32
84 -66 328 -48 345 6 6 59 13 185 27 111 11 111 11 321 -30 116 -23 215 -41
221 -41 5 0 37 44 70 98 73 117 127 182 153 182 10 0 19 -4 19 -10z m-945
-1615 l130 -45 17 -87 c34 -177 50 -370 49 -601 0 -189 2 -222 13 -206 7 10
32 52 56 92 23 39 48 72 55 72 16 0 129 179 127 202 -1 17 2 17 29 3 16 -9 29
-20 29 -27 0 -6 -51 -93 -112 -195 l-113 -183 -45 5 c-98 12 -98 12 -114 68
-8 29 -69 246 -136 482 -66 237 -123 438 -126 448 -3 9 -2 17 3 17 5 0 67 -20
138 -45z m1284 -215 l-2 -70 -74 0 -73 0 0 70 0 70 76 0 75 0 -2 -70z m-1803
-1532 c-10 -6 -20 -7 -24 -3 -9 8 20 25 31 18 5 -3 2 -10 -7 -15z m-217 -420
c-10 -46 -35 -161 -56 -255 -21 -97 -43 -173 -49 -173 -6 0 -18 8 -27 18 -19
21 -35 78 -19 68 17 -10 50 32 73 93 11 31 34 114 51 186 28 122 35 145 43
145 1 0 -5 -37 -16 -82z"/>
<path d="M3277 3468 c-50 -89 -91 -196 -121 -318 -26 -105 -47 -248 -39 -262
11 -20 22 -4 28 40 25 194 72 358 142 495 32 61 42 92 35 99 -7 7 -21 -10 -45
-54z"/>
<path d="M540 3407 c0 -7 9 -39 19 -69 48 -139 117 -445 157 -695 3 -20 11
-33 20 -33 17 0 18 -12 -21 210 -26 146 -98 439 -133 539 -17 52 -42 80 -42
48z"/>
<path d="M3087 2603 c-18 -17 -3 -434 27 -763 8 -80 13 -146 11 -148 -1 -1
-128 2 -281 8 -375 13 -417 13 -412 -2 5 -13 67 -17 588 -33 129 -3 264 -13
301 -20 138 -29 283 -97 371 -175 54 -47 86 -45 41 2 -71 77 -244 166 -383
198 l-54 13 34 29 c19 16 77 50 128 75 80 39 106 47 175 52 104 8 104 26 -1
25 -96 -1 -184 -36 -302 -118 -74 -52 -85 -57 -128 -54 l-47 3 -17 195 c-9
107 -20 313 -24 458 -4 144 -10 262 -14 262 -4 0 -10 -3 -13 -7z"/>
<path d="M777 2303 c-4 -5 0 -47 8 -94 7 -46 23 -160 34 -254 26 -201 28 -215
41 -215 16 0 11 63 -24 314 -31 219 -44 273 -59 249z"/>
</g>
</svg>
